<svg width="24" height="24" viewBox="0 0 24 24" fill="none" xmlns="http://www.w3.org/2000/svg">
<rect y="4" width="24" height="16" rx="3" fill="white"/>
<rect x="0.5" y="4.5" width="23" height="15" rx="2.5" stroke="black" stroke-opacity="0.1"/>
<path d="M10.2852 19.771L23.3137 15.8281V16.771C23.3137 18.4278 21.9706 19.771 20.3137 19.771H10.2852Z" fill="#FD6020"/>
<path fill-rule="evenodd" clip-rule="evenodd" d="M20.8413 10.25C21.5581 10.25 21.9523 10.5816 21.9523 11.2079C21.9881 11.6868 21.6656 12.0921 21.2355 12.1657L22.2031 13.5289H21.4505L20.6262 12.2026H20.5546V13.5289H19.9453V10.25H20.8413ZM20.5546 11.7605H20.7338C21.128 11.7605 21.3072 11.5763 21.3072 11.2447C21.3072 10.95 21.128 10.7658 20.7338 10.7658H20.5546V11.7605ZM17.832 13.5289H19.5523V12.9763H18.4413V12.0921H19.5164V11.5394H18.4413V10.8026H19.5523V10.25H17.832V13.5289ZM16.0397 12.4605L15.2154 10.25H14.5703L15.8963 13.6026H16.2189L17.5449 10.25H16.8998L16.0397 12.4605ZM8.76172 11.9049C8.76172 12.8259 9.47849 13.5996 10.3745 13.5996C10.6612 13.5996 10.912 13.5259 11.1629 13.4154V12.6786C10.9837 12.8996 10.7328 13.047 10.4461 13.047C9.87272 13.047 9.40681 12.6049 9.40681 12.0154V11.9418C9.37098 11.3523 9.83688 10.8365 10.4103 10.7997C10.697 10.7997 10.9837 10.947 11.1629 11.1681V10.4313C10.9479 10.2839 10.6612 10.247 10.4103 10.247C9.47849 10.1734 8.76172 10.947 8.76172 11.9049ZM7.65208 11.5005C7.2937 11.3531 7.18618 11.2794 7.18618 11.0952C7.22202 10.8742 7.40121 10.69 7.61624 10.7268C7.79544 10.7268 7.97463 10.8373 8.11799 10.9847L8.44053 10.5426C8.18966 10.3216 7.86712 10.1742 7.54457 10.1742C7.04283 10.1374 6.61276 10.5426 6.57692 11.0584V11.0952C6.57692 11.5373 6.75612 11.7952 7.32954 11.9794C7.47289 12.0163 7.61624 12.09 7.7596 12.1636C7.86712 12.2373 7.93879 12.3478 7.93879 12.4952C7.93879 12.7531 7.72376 12.9741 7.50873 12.9741H7.47289C7.18618 12.9741 6.93531 12.7899 6.82779 12.532L6.43357 12.9373C6.6486 13.3426 7.07866 13.5636 7.50873 13.5636C8.08215 13.6004 8.54805 13.1584 8.58389 12.5689V12.4584C8.54805 12.0163 8.36886 11.7952 7.65208 11.5005ZM5.57422 13.5289H6.18348V10.25H5.57422V13.5289ZM2.74219 10.25H3.63815H3.81735C4.67748 10.2868 5.35841 11.0237 5.32257 11.9079C5.32257 12.3868 5.10754 12.8289 4.74915 13.1605C4.4266 13.4184 4.03238 13.5657 3.63815 13.5289H2.74219V10.25ZM3.53076 12.9776C3.81747 13.0144 4.14001 12.9039 4.35505 12.7197C4.57008 12.4986 4.67759 12.2039 4.67759 11.8723C4.67759 11.5776 4.57008 11.2829 4.35505 11.0618C4.14001 10.8776 3.81747 10.7671 3.53076 10.8039H3.35156V12.9776H3.53076Z" fill="black"/>
<path fill-rule="evenodd" clip-rule="evenodd" d="M12.9923 10.1719C12.0964 10.1719 11.3438 10.9087 11.3438 11.8666C11.3438 12.7876 12.0605 13.5613 12.9923 13.5981C13.9241 13.635 14.6409 12.8613 14.6767 11.9034C14.6409 10.9455 13.9241 10.1719 12.9923 10.1719V10.1719Z" fill="#FD6020"/>
</svg>
