<svg width="24" height="24" viewBox="0 0 24 24" fill="none" xmlns="http://www.w3.org/2000/svg">
<rect y="4" width="24" height="16" rx="3" fill="white"/>
<rect x="0.5" y="4.5" width="23" height="15" rx="2.5" stroke="black" stroke-opacity="0.1"/>
<path d="M15.3025 12.4247C15.6547 12.4323 16.009 12.4091 16.3598 12.4367C16.7151 12.503 16.8007 13.0409 16.4851 13.217C16.2697 13.3331 16.0138 13.2602 15.7804 13.2807H15.3025V12.4247ZM16.5635 11.4557C16.6417 11.732 16.3754 11.98 16.1094 11.9419H15.3025C15.3082 11.6814 15.2914 11.3987 15.3107 11.1519C15.6339 11.161 15.9602 11.1334 16.2815 11.1664C16.4196 11.2011 16.5352 11.3146 16.5635 11.4557ZM18.5054 7.35939C18.5204 7.88692 18.5075 8.44232 18.5119 8.98054C18.5109 11.1688 18.514 13.3569 18.5101 15.5452C18.496 16.3653 17.7692 17.0779 16.9548 17.0943C16.1396 17.0976 15.3243 17.0948 14.5089 17.0957V13.7876C15.3973 13.783 16.286 13.7969 17.174 13.7806C17.5859 13.7548 18.0371 13.483 18.0563 13.0297C18.1048 12.5744 17.6756 12.2595 17.268 12.2098C17.1114 12.2057 17.116 12.1641 17.268 12.146C17.6567 12.062 17.9619 11.6597 17.8476 11.2568C17.7501 10.8331 17.2818 10.6691 16.8922 10.6699C16.0979 10.6645 15.3035 10.6691 14.5091 10.6675C14.5142 10.05 14.4984 9.43171 14.5176 8.81458C14.5806 8.00929 15.3257 7.3452 16.1286 7.35961C16.921 7.35948 17.7132 7.35948 18.5054 7.35945V7.35939Z" fill="url(#paint0_linear_47225_351571)"/>
<path d="M5.53285 8.89813C5.55313 8.07934 6.28303 7.3726 7.09639 7.36063C7.90858 7.35813 8.72088 7.36027 9.53307 7.35954C9.53084 10.099 9.53747 12.8388 9.52972 15.5782C9.49843 16.387 8.77649 17.0803 7.97199 17.0946C7.15827 17.0975 6.34446 17.095 5.53071 17.0958V13.6762C6.32113 13.8629 7.15001 13.9424 7.95638 13.8185C8.43839 13.741 8.96576 13.5043 9.12895 13.0042C9.24904 12.5765 9.18143 12.1263 9.1993 11.6873V10.6677H7.8038C7.79753 11.342 7.81664 12.0175 7.7937 12.691C7.75609 13.105 7.34612 13.368 6.95569 13.354C6.47148 13.3591 5.51196 13.003 5.51196 13.003C5.50955 11.7396 5.526 10.1574 5.53285 8.89825V8.89813Z" fill="url(#paint1_linear_47225_351571)"/>
<path d="M10.0538 11.0791C9.98033 11.0947 10.039 10.8289 10.0202 10.7281C10.0252 10.0905 10.0098 9.45234 10.0288 8.81528C10.0915 8.00659 10.8423 7.34084 11.6485 7.35977H14.0228C14.0205 10.0993 14.0272 12.839 14.0194 15.5784C13.9881 16.3872 13.2661 17.0805 12.4616 17.0948C11.6479 17.0979 10.834 17.0953 10.0202 17.0961V13.3494C10.576 13.8054 11.3314 13.8764 12.0238 13.8776C12.5458 13.8774 13.0648 13.797 13.5717 13.6766V12.9902C13.0004 13.2749 12.3289 13.4558 11.6956 13.2922C11.2538 13.1822 10.9331 12.7553 10.9403 12.2994C10.8891 11.8253 11.167 11.3247 11.6329 11.1838C12.2114 11.0027 12.8418 11.1412 13.384 11.3766C13.5002 11.4375 13.6181 11.5129 13.5717 11.3187V10.7792C12.6648 10.5634 11.6997 10.4841 10.7887 10.7188C10.5249 10.7932 10.268 10.906 10.0538 11.0792V11.0791Z" fill="url(#paint2_linear_47225_351571)"/>
<defs>
<linearGradient id="paint0_linear_47225_351571" x1="14.4816" y1="12.0194" x2="18.4866" y2="12.0194" gradientUnits="userSpaceOnUse">
<stop stop-color="#58B03A"/>
<stop offset="1" stop-color="#55B330"/>
</linearGradient>
<linearGradient id="paint1_linear_47225_351571" x1="5.44555" y1="12.3209" x2="9.46744" y2="12.3209" gradientUnits="userSpaceOnUse">
<stop stop-color="#0F6EB6"/>
<stop offset="1" stop-color="#006DBA"/>
</linearGradient>
<linearGradient id="paint2_linear_47225_351571" x1="10.0143" y1="12.1141" x2="14.022" y2="12.1141" gradientUnits="userSpaceOnUse">
<stop stop-color="#DE0D3D"/>
<stop offset="1" stop-color="#E30138"/>
</linearGradient>
</defs>
</svg>
