<svg width="24" height="24" viewBox="0 0 24 24" fill="none" xmlns="http://www.w3.org/2000/svg">
<rect y="4" width="24" height="16" rx="3" fill="white"/>
<rect x="0.5" y="4.5" width="23" height="15" rx="2.5" stroke="black" stroke-opacity="0.1"/>
<path fill-rule="evenodd" clip-rule="evenodd" d="M12.895 8.98359L11.6758 9.24524V8.2568L12.895 8V8.98359ZM7.94003 8.5625L6.75488 8.81445L6.75002 12.6955C6.75002 13.4126 7.28917 13.9408 8.00803 13.9408C8.40632 13.9408 8.69775 13.8681 8.85803 13.7809V12.7973C8.7026 12.8603 7.93517 13.0831 7.93517 12.366V10.646H8.85803V9.61393H7.93517L7.94003 8.5625ZM5.07141 10.5825C4.81398 10.5825 4.65855 10.6552 4.65855 10.8442C4.65855 11.0505 4.92605 11.1413 5.25791 11.2539C5.79891 11.4374 6.51098 11.679 6.51399 12.574C6.51399 13.4413 5.81941 13.9403 4.80912 13.9403C4.39141 13.9403 3.93483 13.858 3.48312 13.6641V12.511C3.89112 12.7338 4.40598 12.8986 4.80912 12.8986C5.08112 12.8986 5.27541 12.8259 5.27541 12.603C5.27541 12.3745 4.98544 12.27 4.63537 12.1439C4.10223 11.9518 3.42969 11.7096 3.42969 10.9023C3.42969 10.0447 4.0854 9.53111 5.07141 9.53111C5.47455 9.53111 5.87284 9.5941 6.27599 9.754V10.8926C5.90684 10.694 5.44055 10.5825 5.07141 10.5825ZM15.4316 9.53111C14.9556 9.53111 14.6496 9.754 14.4796 9.90905L14.4165 9.60864H13.3479V15.2582L14.5622 15.0014L14.567 13.6302C14.7419 13.7562 14.9993 13.9355 15.4268 13.9355C16.2962 13.9355 17.0879 13.2378 17.0879 11.7018C17.0831 10.2967 16.2816 9.53111 15.4316 9.53111ZM15.1407 12.872C14.8542 12.872 14.6842 12.7702 14.5676 12.6443L14.5627 10.8467C14.689 10.7061 14.8639 10.6092 15.1407 10.6092C15.5827 10.6092 15.8887 11.1035 15.8887 11.7382C15.8887 12.3875 15.5876 12.872 15.1407 12.872ZM19.1601 9.53125C20.3113 9.53125 20.9136 10.51 20.9136 11.7504C20.9136 11.8174 20.9103 11.9294 20.9076 12.0243C20.9056 12.0942 20.9039 12.1549 20.9039 12.1816H18.5287C18.5821 12.7534 18.9999 12.9181 19.471 12.9181C19.9519 12.9181 20.3307 12.8164 20.661 12.6516V13.6207C20.3307 13.8048 19.8936 13.9356 19.3156 13.9356C18.1304 13.9356 17.3047 13.1991 17.3047 11.7407C17.3047 10.51 18.0041 9.53125 19.1601 9.53125ZM19.1568 10.5156C18.8508 10.5156 18.5156 10.7434 18.5156 11.2909H19.7688C19.7688 10.7434 19.4531 10.5156 19.1568 10.5156ZM10.3691 9.97113L10.2914 9.61258H9.24221V13.8522H10.4565V10.979C10.7431 10.6059 11.2288 10.6737 11.3794 10.727V9.61258C11.2239 9.55444 10.6556 9.44784 10.3691 9.97113ZM11.6758 9.61719H12.895V13.8568H11.6758V9.61719Z" fill="#6461FC"/>
</svg>
